<svg data-v-423bf9ae="" xmlns="http://www.w3.org/2000/svg" viewBox="0 0 483.34320497180283 60" class="font"><!----><!----><defs data-v-423bf9ae=""><linearGradient data-v-423bf9ae="" gradientTransform="rotate(25)" id="47f21ab8-3a4e-4e7a-b42d-12582c8ea5fe" x1="0%" y1="0%" x2="100%" y2="0%"><stop data-v-423bf9ae="" offset="0%" style="stop-color: rgb(140, 72, 210); stop-opacity: 1;"></stop><stop data-v-423bf9ae="" offset="100%" style="stop-color: rgb(207, 112, 90); stop-opacity: 1;"></stop></linearGradient></defs><g data-v-423bf9ae="" id="30300825-31d8-4fd6-982f-3af6805ff16e" fill="url(#47f21ab8-3a4e-4e7a-b42d-12582c8ea5fe)" transform="matrix(4.457651974651253,0,0,4.457651974651253,-3.1203516186868967,-12.971768344094222)"><path d="M6.12 11.76L6.12 13.47L6.12 13.47Q6.12 14.11 5.96 14.56L5.96 14.56L5.96 14.56Q5.81 15.01 5.54 15.29L5.54 15.29L5.54 15.29Q5.26 15.57 4.89 15.69L4.89 15.69L4.89 15.69Q4.52 15.82 4.10 15.82L4.10 15.82L4.10 15.82Q3.36 15.82 2.91 15.44L2.91 15.44L2.91 15.44Q2.45 15.06 2.07 14.43L2.07 14.43L1.30 15.13L1.30 15.13Q1.40 15.26 1.61 15.46L1.61 15.46L1.61 15.46Q1.82 15.67 2.14 15.87L2.14 15.87L2.14 15.87Q2.46 16.07 2.91 16.22L2.91 16.22L2.91 16.22Q3.36 16.37 3.93 16.37L3.93 16.37L3.93 16.37Q5.00 16.37 5.66 16.07L5.66 16.07L5.66 16.07Q6.31 15.76 6.68 15.26L6.68 15.26L6.68 15.26Q7.04 14.76 7.17 14.11L7.17 14.11L7.17 14.11Q7.31 13.45 7.31 12.75L7.31 12.75L7.31 5.88L6.12 5.88L6.12 6.97L6.06 6.97L6.06 6.97Q5.89 6.38 5.34 6.06L5.34 6.06L5.34 6.06Q4.79 5.73 3.89 5.73L3.89 5.73L3.89 5.73Q3.18 5.73 2.59 5.99L2.59 5.99L2.59 5.99Q2.00 6.24 1.58 6.72L1.58 6.72L1.58 6.72Q1.16 7.20 0.93 7.87L0.93 7.87L0.93 7.87Q0.70 8.54 0.70 9.37L0.70 9.37L0.70 9.37Q0.70 10.21 0.93 10.89L0.93 10.89L0.93 10.89Q1.16 11.56 1.58 12.05L1.58 12.05L1.58 12.05Q2.00 12.53 2.58 12.79L2.58 12.79L2.58 12.79Q3.16 13.05 3.88 13.05L3.88 13.05L3.88 13.05Q4.66 13.05 5.24 12.74L5.24 12.74L5.24 12.74Q5.82 12.43 6.06 11.76L6.06 11.76L6.12 11.76ZM6.12 8.86L6.12 9.90L6.12 9.90Q6.12 10.49 5.96 10.93L5.96 10.93L5.96 10.93Q5.80 11.38 5.53 11.69L5.53 11.69L5.53 11.69Q5.26 12.00 4.91 12.16L4.91 12.16L4.91 12.16Q4.56 12.32 4.19 12.32L4.19 12.32L4.19 12.32Q3.85 12.32 3.46 12.20L3.46 12.20L3.46 12.20Q3.08 12.08 2.75 11.76L2.75 11.76L2.75 11.76Q2.42 11.44 2.21 10.85L2.21 10.85L2.21 10.85Q1.99 10.26 1.99 9.34L1.99 9.34L1.99 9.34Q1.99 8.36 2.25 7.78L2.25 7.78L2.25 7.78Q2.52 7.20 2.88 6.89L2.88 6.89L2.88 6.89Q3.23 6.58 3.60 6.49L3.60 6.49L3.60 6.49Q3.98 6.40 4.19 6.40L4.19 6.40L4.19 6.40Q4.65 6.40 5.01 6.60L5.01 6.60L5.01 6.60Q5.38 6.80 5.62 7.15L5.62 7.15L5.62 7.15Q5.87 7.49 5.99 7.94L5.99 7.94L5.99 7.94Q6.12 8.39 6.12 8.86L6.12 8.86ZM10.74 5.88L9.55 5.88L9.55 12.88L10.74 12.88L10.74 8.65L10.74 8.65Q10.74 8.08 10.87 7.68L10.87 7.68L10.87 7.68Q11.00 7.28 11.21 7.03L11.21 7.03L11.21 7.03Q11.42 6.78 11.68 6.66L11.68 6.66L11.68 6.66Q11.93 6.55 12.17 6.55L12.17 6.55L12.17 6.55Q12.49 6.55 12.76 6.76L12.76 6.76L12.76 6.76Q13.03 6.97 13.16 7.15L13.16 7.15L13.64 6.29L13.64 6.29Q13.51 6.12 13.34 6.01L13.34 6.01L13.34 6.01Q13.16 5.89 12.99 5.83L12.99 5.83L12.99 5.83Q12.81 5.77 12.66 5.75L12.66 5.75L12.66 5.75Q12.52 5.73 12.45 5.73L12.45 5.73L12.45 5.73Q11.86 5.73 11.47 6.05L11.47 6.05L11.47 6.05Q11.07 6.37 10.82 7.00L10.82 7.00L10.74 7.00L10.74 5.88ZM20.99 5.88L19.80 5.88L19.80 12.88L20.99 12.88L20.99 8.65L20.99 8.65Q20.99 8.08 21.12 7.68L21.12 7.68L21.12 7.68Q21.25 7.28 21.46 7.03L21.46 7.03L21.46 7.03Q21.67 6.78 21.92 6.66L21.92 6.66L21.92 6.66Q22.18 6.55 22.41 6.55L22.41 6.55L22.41 6.55Q22.74 6.55 23.01 6.76L23.01 6.76L23.01 6.76Q23.28 6.97 23.41 7.15L23.41 7.15L23.88 6.29L23.88 6.29Q23.76 6.12 23.58 6.01L23.58 6.01L23.58 6.01Q23.41 5.89 23.23 5.83L23.23 5.83L23.23 5.83Q23.06 5.77 22.91 5.75L22.91 5.75L22.91 5.75Q22.76 5.73 22.69 5.73L22.69 5.73L22.69 5.73Q22.11 5.73 21.71 6.05L21.71 6.05L21.71 6.05Q21.32 6.37 21.07 7.00L21.07 7.00L20.99 7.00L20.99 5.88ZM26.04 9.69L31.36 9.69L31.36 9.39L31.36 9.39Q31.36 8.46 31.09 7.77L31.09 7.77L31.09 7.77Q30.83 7.08 30.37 6.64L30.37 6.64L30.37 6.64Q29.92 6.19 29.32 5.96L29.32 5.96L29.32 5.96Q28.71 5.74 28.04 5.74L28.04 5.74L28.04 5.74Q27.33 5.74 26.73 5.99L26.73 5.99L26.73 5.99Q26.12 6.23 25.68 6.70L25.68 6.70L25.68 6.70Q25.23 7.17 24.98 7.83L24.98 7.83L24.98 7.83Q24.72 8.50 24.72 9.34L24.72 9.34L24.72 9.34Q24.72 10.04 24.94 10.70L24.94 10.70L24.94 10.70Q25.16 11.37 25.60 11.89L25.60 11.89L25.60 11.89Q26.04 12.42 26.72 12.73L26.72 12.73L26.72 12.73Q27.40 13.05 28.32 13.05L28.32 13.05L28.32 13.05Q29.22 13.05 29.97 12.73L29.97 12.73L29.97 12.73Q30.73 12.42 31.29 11.83L31.29 11.83L30.84 11.38L30.84 11.38Q30.55 11.63 30.29 11.84L30.29 11.84L30.29 11.84Q30.03 12.05 29.76 12.19L29.76 12.19L29.76 12.19Q29.50 12.33 29.21 12.41L29.21 12.41L29.21 12.41Q28.92 12.49 28.57 12.49L28.57 12.49L28.57 12.49Q28.18 12.49 27.74 12.37L27.74 12.37L27.74 12.37Q27.30 12.25 26.92 11.94L26.92 11.94L26.92 11.94Q26.54 11.63 26.29 11.09L26.29 11.09L26.29 11.09Q26.04 10.54 26.04 9.69L26.04 9.69ZM30.14 9.13L26.04 9.13L26.04 9.13Q26.04 8.57 26.16 8.04L26.16 8.04L26.16 8.04Q26.28 7.52 26.52 7.11L26.52 7.11L26.52 7.11Q26.77 6.71 27.15 6.46L27.15 6.46L27.15 6.46Q27.52 6.22 28.04 6.22L28.04 6.22L28.04 6.22Q29.04 6.22 29.59 6.99L29.59 6.99L29.59 6.99Q30.14 7.77 30.14 9.13L30.14 9.13ZM35.76 5.73L35.76 5.73L35.76 5.73Q36.78 5.73 37.34 6.01L37.34 6.01L37.34 6.01Q37.90 6.30 38.16 6.76L38.16 6.76L38.16 6.76Q38.42 7.22 38.46 7.83L38.46 7.83L38.46 7.83Q38.50 8.43 38.50 9.06L38.50 9.06L38.50 12.88L37.37 12.88L37.37 12.19L37.37 12.19Q36.96 12.59 36.33 12.82L36.33 12.82L36.33 12.82Q35.70 13.05 35.07 13.05L35.07 13.05L35.07 13.05Q34.47 13.05 34.01 12.84L34.01 12.84L34.01 12.84Q33.54 12.63 33.24 12.29L33.24 12.29L33.24 12.29Q32.93 11.96 32.77 11.54L32.77 11.54L32.77 11.54Q32.62 11.12 32.62 10.68L32.62 10.68L32.62 10.68Q32.62 10.23 32.79 9.79L32.79 9.79L32.79 9.79Q32.96 9.34 33.29 8.98L33.29 8.98L33.29 8.98Q33.63 8.62 34.12 8.40L34.12 8.40L34.12 8.40Q34.61 8.18 35.24 8.18L35.24 8.18L35.24 8.18Q35.87 8.18 36.44 8.42L36.44 8.42L36.44 8.42Q37.00 8.67 37.37 9.11L37.37 9.11L37.37 8.51L37.37 8.51Q37.37 7.36 37.02 6.80L37.02 6.80L37.02 6.80Q36.68 6.24 35.77 6.24L35.77 6.24L35.77 6.24Q35.38 6.24 35.08 6.34L35.08 6.34L35.08 6.34Q34.79 6.44 34.56 6.62L34.56 6.62L34.56 6.62Q34.33 6.79 34.13 7.05L34.13 7.05L34.13 7.05Q33.94 7.31 33.74 7.63L33.74 7.63L33.01 6.90L33.01 6.90Q33.21 6.69 33.43 6.48L33.43 6.48L33.43 6.48Q33.64 6.27 33.96 6.10L33.96 6.10L33.96 6.10Q34.27 5.94 34.71 5.83L34.71 5.83L34.71 5.83Q35.14 5.73 35.76 5.73ZM37.37 11.19L37.37 10.11L37.37 10.11Q37.30 9.94 37.16 9.72L37.16 9.72L37.16 9.72Q37.03 9.49 36.82 9.28L36.82 9.28L36.82 9.28Q36.61 9.07 36.32 8.93L36.32 8.93L36.32 8.93Q36.02 8.78 35.62 8.78L35.62 8.78L35.62 8.78Q35.21 8.78 34.87 8.94L34.87 8.94L34.87 8.94Q34.54 9.10 34.31 9.36L34.31 9.36L34.31 9.36Q34.08 9.62 33.95 9.97L33.95 9.97L33.95 9.97Q33.82 10.32 33.82 10.70L33.82 10.70L33.82 10.70Q33.82 11.14 33.98 11.47L33.98 11.47L33.98 11.47Q34.15 11.80 34.40 12.03L34.40 12.03L34.40 12.03Q34.65 12.26 34.96 12.38L34.96 12.38L34.96 12.38Q35.27 12.49 35.55 12.49L35.55 12.49L35.55 12.49Q35.81 12.49 36.09 12.39L36.09 12.39L36.09 12.39Q36.36 12.29 36.60 12.12L36.60 12.12L36.60 12.12Q36.85 11.94 37.04 11.70L37.04 11.70L37.04 11.70Q37.24 11.47 37.37 11.19L37.37 11.19ZM42.21 12.88L42.21 3.08L41.02 3.08L41.02 12.88L42.21 12.88ZM45.25 6.44L44.03 6.44L44.03 5.88L45.25 5.88L45.25 3.72L46.44 3.72L46.44 5.88L48.13 5.88L48.13 6.44L46.44 6.44L46.44 11.09L46.44 11.09Q46.44 11.26 46.45 11.47L46.45 11.47L46.45 11.47Q46.47 11.69 46.54 11.88L46.54 11.88L46.54 11.88Q46.61 12.07 46.75 12.19L46.75 12.19L46.75 12.19Q46.90 12.32 47.17 12.32L47.17 12.32L47.17 12.32Q47.50 12.32 47.73 12.07L47.73 12.07L47.73 12.07Q47.95 11.82 48.09 11.52L48.09 11.52L48.75 12.19L48.75 12.19Q48.06 12.88 47.19 12.88L47.19 12.88L47.19 12.88Q46.83 12.88 46.48 12.75L46.48 12.75L46.48 12.75Q46.13 12.63 45.86 12.37L45.86 12.37L45.86 12.37Q45.58 12.11 45.42 11.70L45.42 11.70L45.42 11.70Q45.25 11.30 45.25 10.75L45.25 10.75L45.25 6.44ZM56.81 9.39L56.81 9.39L56.81 9.39Q56.81 10.12 56.56 10.79L56.56 10.79L56.56 10.79Q56.31 11.45 55.84 11.96L55.84 11.96L55.84 11.96Q55.37 12.46 54.71 12.75L54.71 12.75L54.71 12.75Q54.04 13.05 53.21 13.05L53.21 13.05L53.21 13.05Q52.37 13.05 51.70 12.75L51.70 12.75L51.70 12.75Q51.02 12.45 50.55 11.94L50.55 11.94L50.55 11.94Q50.08 11.44 49.82 10.77L49.82 10.77L49.82 10.77Q49.56 10.11 49.56 9.39L49.56 9.39L49.56 9.39Q49.56 8.67 49.82 8.00L49.82 8.00L49.82 8.00Q50.08 7.34 50.55 6.83L50.55 6.83L50.55 6.83Q51.02 6.33 51.70 6.03L51.70 6.03L51.70 6.03Q52.37 5.73 53.21 5.73L53.21 5.73L53.21 5.73Q54.04 5.73 54.71 6.03L54.71 6.03L54.71 6.03Q55.37 6.33 55.84 6.83L55.84 6.83L55.84 6.83Q56.31 7.34 56.56 8.00L56.56 8.00L56.56 8.00Q56.81 8.67 56.81 9.39ZM55.48 9.39L55.48 9.39L55.48 9.39Q55.48 8.41 55.27 7.81L55.27 7.81L55.27 7.81Q55.06 7.20 54.73 6.86L54.73 6.86L54.73 6.86Q54.39 6.52 53.98 6.41L53.98 6.41L53.98 6.41Q53.58 6.29 53.20 6.29L53.20 6.29L53.20 6.29Q52.82 6.29 52.42 6.41L52.42 6.41L52.42 6.41Q52.01 6.52 51.67 6.86L51.67 6.86L51.67 6.86Q51.32 7.20 51.11 7.81L51.11 7.81L51.11 7.81Q50.89 8.41 50.89 9.39L50.89 9.39L50.89 9.39Q50.89 10.36 51.11 10.97L51.11 10.97L51.11 10.97Q51.32 11.58 51.67 11.91L51.67 11.91L51.67 11.91Q52.01 12.25 52.42 12.37L52.42 12.37L52.42 12.37Q52.82 12.49 53.20 12.49L53.20 12.49L53.20 12.49Q53.58 12.49 53.98 12.37L53.98 12.37L53.98 12.37Q54.39 12.25 54.73 11.91L54.73 11.91L54.73 11.91Q55.06 11.58 55.27 10.97L55.27 10.97L55.27 10.97Q55.48 10.36 55.48 9.39ZM59.82 5.88L58.63 5.88L58.63 12.88L59.82 12.88L59.82 8.65L59.82 8.65Q59.82 8.08 59.96 7.68L59.96 7.68L59.96 7.68Q60.09 7.28 60.30 7.03L60.30 7.03L60.30 7.03Q60.51 6.78 60.76 6.66L60.76 6.66L60.76 6.66Q61.01 6.55 61.25 6.55L61.25 6.55L61.25 6.55Q61.57 6.55 61.85 6.76L61.85 6.76L61.85 6.76Q62.12 6.97 62.24 7.15L62.24 7.15L62.72 6.29L62.72 6.29Q62.59 6.12 62.42 6.01L62.42 6.01L62.42 6.01Q62.24 5.89 62.07 5.83L62.07 5.83L62.07 5.83Q61.89 5.77 61.75 5.75L61.75 5.75L61.75 5.75Q61.60 5.73 61.53 5.73L61.53 5.73L61.53 5.73Q60.94 5.73 60.55 6.05L60.55 6.05L60.55 6.05Q60.16 6.37 59.91 7.00L59.91 7.00L59.82 7.00L59.82 5.88ZM67.65 7.48L68.45 7.48L68.45 7.48Q68.45 7.10 68.25 6.78L68.25 6.78L68.25 6.78Q68.05 6.45 67.71 6.22L67.71 6.22L67.71 6.22Q67.37 5.99 66.91 5.86L66.91 5.86L66.91 5.86Q66.46 5.73 65.94 5.73L65.94 5.73L65.94 5.73Q65.45 5.73 65.02 5.85L65.02 5.85L65.02 5.85Q64.60 5.98 64.28 6.23L64.28 6.23L64.28 6.23Q63.97 6.48 63.78 6.85L63.78 6.85L63.78 6.85Q63.60 7.22 63.60 7.71L63.60 7.71L63.60 7.71Q63.60 8.39 63.91 8.78L63.91 8.78L63.91 8.78Q64.22 9.17 64.68 9.41L64.68 9.41L64.68 9.41Q65.14 9.65 65.68 9.79L65.68 9.79L65.68 9.79Q66.22 9.94 66.68 10.12L66.68 10.12L66.68 10.12Q67.14 10.29 67.45 10.56L67.45 10.56L67.45 10.56Q67.76 10.82 67.76 11.28L67.76 11.28L67.76 11.28Q67.76 11.48 67.70 11.69L67.70 11.69L67.70 11.69Q67.63 11.90 67.47 12.08L67.47 12.08L67.47 12.08Q67.30 12.25 67.00 12.37L67.00 12.37L67.00 12.37Q66.71 12.49 66.26 12.49L66.26 12.49L66.26 12.49Q65.70 12.49 65.32 12.31L65.32 12.31L65.32 12.31Q64.93 12.14 64.69 11.89L64.69 11.89L64.69 11.89Q64.44 11.65 64.34 11.40L64.34 11.40L64.34 11.40Q64.23 11.14 64.23 10.98L64.23 10.98L63.32 10.98L63.32 10.98Q63.32 11.37 63.50 11.74L63.50 11.74L63.50 11.74Q63.69 12.11 64.06 12.40L64.06 12.40L64.06 12.40Q64.43 12.70 64.97 12.87L64.97 12.87L64.97 12.87Q65.51 13.05 66.22 13.05L66.22 13.05L66.22 13.05Q67.51 13.05 68.16 12.48L68.16 12.48L68.16 12.48Q68.81 11.91 68.81 10.99L68.81 10.99L68.81 10.99Q68.81 10.32 68.50 9.91L68.50 9.91L68.50 9.91Q68.18 9.51 67.70 9.26L67.70 9.26L67.70 9.26Q67.23 9.02 66.68 8.86L66.68 8.86L66.68 8.86Q66.12 8.71 65.65 8.54L65.65 8.54L65.65 8.54Q65.17 8.37 64.86 8.13L64.86 8.13L64.86 8.13Q64.54 7.90 64.54 7.46L64.54 7.46L64.54 7.46Q64.54 7.28 64.61 7.08L64.61 7.08L64.61 7.08Q64.68 6.87 64.85 6.70L64.85 6.70L64.85 6.70Q65.02 6.52 65.30 6.41L65.30 6.41L65.30 6.41Q65.58 6.29 66.00 6.29L66.00 6.29L66.00 6.29Q66.42 6.29 66.72 6.41L66.72 6.41L66.72 6.41Q67.03 6.52 67.24 6.70L67.24 6.70L67.24 6.70Q67.45 6.87 67.55 7.08L67.55 7.08L67.55 7.08Q67.65 7.29 67.65 7.48L67.65 7.48ZM76.79 9.35L76.79 3.08L75.60 3.08L75.60 12.88L76.79 12.88L76.79 10.25L77.60 9.42L80.42 12.88L81.98 12.88L78.47 8.57L81.14 5.88L80.23 5.88L76.79 9.35ZM89.94 9.39L89.94 9.39L89.94 9.39Q89.94 10.12 89.68 10.79L89.68 10.79L89.68 10.79Q89.43 11.45 88.96 11.96L88.96 11.96L88.96 11.96Q88.49 12.46 87.83 12.75L87.83 12.75L87.83 12.75Q87.16 13.05 86.34 13.05L86.34 13.05L86.34 13.05Q85.50 13.05 84.82 12.75L84.82 12.75L84.82 12.75Q84.14 12.45 83.67 11.94L83.67 11.94L83.67 11.94Q83.20 11.44 82.94 10.77L82.94 10.77L82.94 10.77Q82.68 10.11 82.68 9.39L82.68 9.39L82.68 9.39Q82.68 8.67 82.94 8.00L82.94 8.00L82.94 8.00Q83.20 7.34 83.67 6.83L83.67 6.83L83.67 6.83Q84.14 6.33 84.82 6.03L84.82 6.03L84.82 6.03Q85.50 5.73 86.34 5.73L86.34 5.73L86.34 5.73Q87.16 5.73 87.83 6.03L87.83 6.03L87.83 6.03Q88.49 6.33 88.96 6.83L88.96 6.83L88.96 6.83Q89.43 7.34 89.68 8.00L89.68 8.00L89.68 8.00Q89.94 8.67 89.94 9.39ZM88.61 9.39L88.61 9.39L88.61 9.39Q88.61 8.41 88.40 7.81L88.40 7.81L88.40 7.81Q88.19 7.20 87.85 6.86L87.85 6.86L87.85 6.86Q87.51 6.52 87.11 6.41L87.11 6.41L87.11 6.41Q86.70 6.29 86.32 6.29L86.32 6.29L86.32 6.29Q85.95 6.29 85.54 6.41L85.54 6.41L85.54 6.41Q85.13 6.52 84.79 6.86L84.79 6.86L84.79 6.86Q84.45 7.20 84.23 7.81L84.23 7.81L84.23 7.81Q84.01 8.41 84.01 9.39L84.01 9.39L84.01 9.39Q84.01 10.36 84.23 10.97L84.23 10.97L84.23 10.97Q84.45 11.58 84.79 11.91L84.79 11.91L84.79 11.91Q85.13 12.25 85.54 12.37L85.54 12.37L85.54 12.37Q85.95 12.49 86.32 12.49L86.32 12.49L86.32 12.49Q86.70 12.49 87.11 12.37L87.11 12.37L87.11 12.37Q87.51 12.25 87.85 11.91L87.85 11.91L87.85 11.91Q88.19 11.58 88.40 10.97L88.40 10.97L88.40 10.97Q88.61 10.36 88.61 9.39ZM95.27 12.32L95.27 12.32L95.27 12.32Q94.77 12.32 94.30 12.17L94.30 12.17L94.30 12.17Q93.83 12.01 93.46 11.67L93.46 11.67L93.46 11.67Q93.10 11.33 92.88 10.76L92.88 10.76L92.88 10.76Q92.67 10.19 92.67 9.37L92.67 9.37L92.67 9.37Q92.67 8.51 92.90 7.92L92.90 7.92L92.90 7.92Q93.14 7.32 93.50 6.97L93.50 6.97L93.50 6.97Q93.86 6.61 94.29 6.45L94.29 6.45L94.29 6.45Q94.72 6.29 95.12 6.29L95.12 6.29L95.12 6.29Q95.76 6.29 96.24 6.62L96.24 6.62L96.24 6.62Q96.71 6.96 96.87 7.45L96.87 7.45L97.83 7.45L97.83 7.45Q97.69 6.94 97.38 6.62L97.38 6.62L97.38 6.62Q97.08 6.29 96.68 6.08L96.68 6.08L96.68 6.08Q96.28 5.88 95.82 5.80L95.82 5.80L95.82 5.80Q95.37 5.73 94.95 5.73L94.95 5.73L94.95 5.73Q94.07 5.73 93.39 6.01L93.39 6.01L93.39 6.01Q92.72 6.30 92.26 6.79L92.26 6.79L92.26 6.79Q91.80 7.28 91.57 7.94L91.57 7.94L91.57 7.94Q91.34 8.60 91.34 9.34L91.34 9.34L91.34 9.34Q91.34 10.12 91.59 10.80L91.59 10.80L91.59 10.80Q91.84 11.48 92.31 11.98L92.31 11.98L92.31 11.98Q92.78 12.47 93.44 12.76L93.44 12.76L93.44 12.76Q94.09 13.05 94.92 13.05L94.92 13.05L94.92 13.05Q95.84 13.05 96.54 12.74L96.54 12.74L96.54 12.74Q97.23 12.43 97.71 12.07L97.71 12.07L97.30 11.54L97.30 11.54Q96.81 11.94 96.33 12.13L96.33 12.13L96.33 12.13Q95.84 12.32 95.27 12.32ZM100.56 3.08L99.37 3.08L99.37 12.88L100.56 12.88L100.56 8.83L100.56 8.83Q100.56 8.55 100.60 8.15L100.60 8.15L100.60 8.15Q100.65 7.74 100.84 7.36L100.84 7.36L100.84 7.36Q101.02 6.99 101.40 6.71L101.40 6.71L101.40 6.71Q101.78 6.44 102.45 6.44L102.45 6.44L102.45 6.44Q102.93 6.44 103.22 6.62L103.22 6.62L103.22 6.62Q103.50 6.79 103.66 7.08L103.66 7.08L103.66 7.08Q103.81 7.38 103.86 7.77L103.86 7.77L103.86 7.77Q103.91 8.16 103.91 8.58L103.91 8.58L103.91 12.88L105.10 12.88L105.10 8.26L105.10 8.26Q105.10 7.48 104.87 6.98L104.87 6.98L104.87 6.98Q104.65 6.48 104.31 6.20L104.31 6.20L104.31 6.20Q103.98 5.92 103.58 5.82L103.58 5.82L103.58 5.82Q103.18 5.73 102.82 5.73L102.82 5.73L102.82 5.73Q102.33 5.73 101.79 5.92L101.79 5.92L101.79 5.92Q101.25 6.10 100.77 6.64L100.77 6.64L100.62 6.83L100.56 6.83L100.56 3.08ZM108.98 5.88L107.79 5.88L107.79 12.88L108.98 12.88L108.98 5.88ZM107.62 3.67L107.62 3.67L107.62 3.67Q107.62 3.98 107.84 4.20L107.84 4.20L107.84 4.20Q108.07 4.42 108.37 4.42L108.37 4.42L108.37 4.42Q108.68 4.42 108.91 4.20L108.91 4.20L108.91 4.20Q109.13 3.98 109.13 3.67L109.13 3.67L109.13 3.67Q109.13 3.36 108.91 3.14L108.91 3.14L108.91 3.14Q108.68 2.91 108.37 2.91L108.37 2.91L108.37 2.91Q108.07 2.91 107.84 3.14L107.84 3.14L107.84 3.14Q107.62 3.36 107.62 3.67Z"></path></g><!----><!----></svg>